<svg width="527" height="425" viewBox="0 0 527 425" fill="none" xmlns="http://www.w3.org/2000/svg">
<path d="M266.629 425C410.428 425 527 415.884 527 404.639C527 393.394 410.428 384.278 266.629 384.278C122.831 384.278 6.25879 393.394 6.25879 404.639C6.25879 415.884 122.831 425 266.629 425Z" fill="#3F3D56"/>
<path d="M487.8 366.813L490.24 384.727L473.158 386.355L475.598 364.371L487.8 366.813Z" fill="#A0616A"/>
<path d="M407.268 120.914C407.268 120.914 408.895 142.898 408.895 143.713C408.895 144.527 397.507 200.709 397.507 200.709C397.507 200.709 381.238 231.65 397.507 230.836C413.776 230.022 408.895 201.524 408.895 201.524L425.977 154.298L418.656 120.914L407.268 120.914Z" fill="#A0616A"/>
<path d="M434.112 366.813L431.672 384.727L448.754 386.355L446.314 364.371L434.112 366.813Z" fill="#A0616A"/>
<path d="M415.402 199.081L411.335 204.781C411.335 204.781 408.895 229.208 411.335 237.35C413.775 245.492 418.656 282.947 418.656 285.39C418.656 287.833 419.47 289.461 418.656 290.275C417.843 291.09 415.402 291.09 417.029 292.718C418.656 294.347 418.656 299.232 418.656 299.232V303.303L429.231 363.557C429.231 363.557 422.723 370.885 427.604 370.885C432.485 370.885 450.381 370.885 449.567 362.742L447.94 361.928C447.94 361.928 445.5 308.189 446.313 305.746C447.127 303.303 446.313 298.418 446.313 298.418C446.313 298.418 444.687 295.975 446.313 295.161C447.94 294.347 447.94 287.833 447.94 287.833L455.261 238.164C455.261 238.164 461.769 271.548 465.836 274.805C469.903 278.062 469.09 286.204 469.09 286.204L472.344 357.857C472.344 357.857 469.09 365.999 472.344 367.628C475.598 369.256 489.426 374.956 490.24 366.814C491.053 358.671 495.12 287.833 495.12 284.576C495.12 281.319 494.307 279.69 495.12 277.248C495.934 274.805 494.307 274.805 495.12 274.805C495.934 274.805 493.494 272.362 493.494 270.734V230.836C493.494 230.836 494.307 222.694 495.12 221.065C495.934 219.437 494.307 217.808 495.12 215.366C495.934 212.923 493.494 204.781 493.494 204.781L456.888 195.01L415.402 199.081Z" fill="#2F2E41"/>
<path d="M443.873 381.47C443.873 381.47 447.941 377.399 442.247 377.399C438.591 377.473 434.99 378.305 431.672 379.841L427.604 394.498C427.604 394.498 410.929 407.933 429.638 406.304C448.347 404.676 445.5 405.897 445.5 405.897C445.5 405.897 451.194 404.268 452.008 402.64C452.821 401.011 450.381 377.399 450.381 377.399C450.381 377.399 447.941 383.912 443.873 381.47Z" fill="#2F2E41"/>
<path d="M478.852 381.47C478.852 381.47 474.785 377.399 480.479 377.399C484.134 377.473 487.735 378.305 491.054 379.841L495.121 394.498C495.121 394.498 511.797 407.933 493.087 406.304C474.378 404.676 474.785 405.897 474.785 405.897C474.785 405.897 469.09 404.268 468.277 402.64C467.464 401.011 472.344 377.399 472.344 377.399C472.344 377.399 474.785 383.912 478.852 381.47Z" fill="#2F2E41"/>
<path d="M425.977 56.5894C437.658 56.5894 447.127 47.1112 447.127 35.4193C447.127 23.7273 437.658 14.2491 425.977 14.2491C414.297 14.2491 404.828 23.7273 404.828 35.4193C404.828 47.1112 414.297 56.5894 425.977 56.5894Z" fill="#A0616A"/>
<path d="M418.656 50.8897C418.656 50.8897 421.91 67.1745 421.91 69.6172C421.91 72.0599 435.739 79.388 435.739 79.388L451.194 59.8464C451.194 59.8464 441.433 46.0043 441.433 42.7474L418.656 50.8897Z" fill="#A0616A"/>
<path d="M430.858 72.0599C430.858 72.0599 423.768 70.171 421.619 67.0443C421.619 67.0443 399.134 89.1589 399.134 93.2301L417.03 124.985C417.03 124.985 417.03 136.385 418.657 137.199C420.283 138.013 418.657 137.199 418.657 140.456C418.657 143.713 413.776 164.883 415.403 168.14C417.03 171.397 418.657 168.954 417.03 173.839C415.403 178.725 411.336 204.78 411.336 204.78C411.336 204.78 425.978 199.895 447.127 208.037C468.277 216.18 493.494 204.78 493.494 204.78C493.494 204.78 486.986 190.124 488.613 185.239C490.24 180.353 484.546 171.397 484.546 171.397L480.479 96.487C480.479 96.487 486.173 63.1033 482.106 61.4748L473.971 58.2179L447.921 55.0131C447.921 55.0131 441.433 71.2457 430.858 72.0599Z" fill="#D0CDE1"/>
<path d="M407.268 87.5304L399.133 93.2301C399.133 93.2301 395.066 105.444 399.133 111.143C403.201 116.843 404.828 124.985 404.828 124.985L421.097 123.357L407.268 87.5304Z" fill="#D0CDE1"/>
<path d="M409.83 13.0461L406.161 11.5759C406.161 11.5759 413.832 3.1226 424.504 3.85768L421.503 0.549819C421.503 0.549819 428.84 -2.39044 435.51 5.32778C439.017 9.38509 443.074 14.1542 445.603 19.5266H449.532L447.892 23.1407L453.631 26.7548L447.741 26.1056C448.299 29.2258 448.108 32.434 447.183 35.4657L447.341 38.3223C447.341 38.3223 440.513 27.7475 440.513 26.2773V29.9527C440.513 29.9527 436.844 26.6449 436.844 24.4396L434.843 27.0124L433.843 22.9695L421.503 27.0124L423.504 23.7046L415.833 24.8072L418.835 20.7643C418.835 20.7643 410.163 25.5423 409.83 29.5852C409.496 33.6281 405.161 38.7736 405.161 38.7736L403.16 35.0982C403.16 35.0982 400.158 18.5591 409.83 13.0461Z" fill="#2F2E41"/>
<path d="M414.735 177.193H91.4858V404.485H414.735V177.193Z" fill="#F2F2F2"/>
<path d="M199.861 263.915H118.697V405.738H199.861V263.915Z" fill="#3F3D56"/>
<path d="M155.573 272.423H133.71V292.824H155.573V272.423Z" fill="#F2F2F2"/>
<path d="M184.848 272.423H162.985V292.824H184.848V272.423Z" fill="#F2F2F2"/>
<path d="M155.573 300.243H133.71V321.385H155.573V300.243Z" fill="#F2F2F2"/>
<path d="M184.848 300.243H162.985V321.385H184.848V300.243Z" fill="#F2F2F2"/>
<path d="M189.54 349.54C192.39 349.54 194.7 347.227 194.7 344.375C194.7 341.522 192.39 339.209 189.54 339.209C186.689 339.209 184.379 341.522 184.379 344.375C184.379 347.227 186.689 349.54 189.54 349.54Z" fill="#6C63FF"/>
<path d="M387.524 250.452H227.072V385.231H387.524V250.452Z" fill="#3F3D56"/>
<path d="M448.515 219.984H57.7065L83.7636 165.453L89.595 153.243L97.224 137.276L103.055 125.066L109.816 110.922H417.724L421.716 125.066L425.164 137.276L429.673 153.243L433.121 165.453L448.515 219.984Z" fill="#3F3D56"/>
<path d="M238.332 306.336H232.702V341.087H238.332V306.336Z" fill="#6C63FF"/>
<path d="M238.332 311.502H232.702V315.728H238.332V311.502Z" fill="#F2F2F2"/>
<path d="M238.332 331.695H232.702V335.922H238.332V331.695Z" fill="#F2F2F2"/>
<path d="M254.753 306.336H241.147V341.087H254.753V306.336Z" fill="#6C63FF"/>
<path d="M254.753 311.502H241.147V315.728H254.753V311.502Z" fill="#F2F2F2"/>
<path d="M254.753 331.695H241.147V335.922H254.753V331.695Z" fill="#F2F2F2"/>
<path d="M263.666 306.336H258.037V341.087H263.666V306.336Z" fill="#6C63FF"/>
<path d="M263.666 311.502H258.037V315.728H263.666V311.502Z" fill="#F2F2F2"/>
<path d="M263.666 331.695H258.037V335.922H263.666V331.695Z" fill="#F2F2F2"/>
<path d="M272.111 306.336H266.481V341.087H272.111V306.336Z" fill="#6C63FF"/>
<path d="M272.111 311.502H266.481V315.728H272.111V311.502Z" fill="#F2F2F2"/>
<path d="M272.111 331.695H266.481V335.922H272.111V331.695Z" fill="#F2F2F2"/>
<path d="M277.537 306.459L272.269 308.447L284.514 340.964L289.782 338.977L277.537 306.459Z" fill="#6C63FF"/>
<path d="M279.357 311.293L274.089 313.28L275.578 317.235L280.846 315.248L279.357 311.293Z" fill="#F2F2F2"/>
<path d="M286.473 330.188L281.205 332.176L282.694 336.131L287.962 334.143L286.473 330.188Z" fill="#F2F2F2"/>
<path d="M382.363 306.336H368.758V341.087H382.363V306.336Z" fill="#6C63FF"/>
<path d="M382.363 311.502H368.758V315.728H382.363V311.502Z" fill="#F2F2F2"/>
<path d="M382.363 331.695H368.758V335.922H382.363V331.695Z" fill="#F2F2F2"/>
<path d="M365.474 306.336H359.844V341.087H365.474V306.336Z" fill="#6C63FF"/>
<path d="M365.474 311.502H359.844V315.728H365.474V311.502Z" fill="#F2F2F2"/>
<path d="M365.474 331.695H359.844V335.922H365.474V331.695Z" fill="#F2F2F2"/>
<path d="M357.029 306.336H351.399V341.087H357.029V306.336Z" fill="#6C63FF"/>
<path d="M357.029 311.502H351.399V315.728H357.029V311.502Z" fill="#F2F2F2"/>
<path d="M357.029 331.695H351.399V335.922H357.029V331.695Z" fill="#F2F2F2"/>
<path d="M345.974 306.459L333.728 338.977L338.996 340.964L351.242 308.447L345.974 306.459Z" fill="#6C63FF"/>
<path d="M344.153 311.293L342.664 315.247L347.932 317.235L349.421 313.28L344.153 311.293Z" fill="#F2F2F2"/>
<path d="M337.038 330.188L335.548 334.143L340.816 336.131L342.306 332.176L337.038 330.188Z" fill="#F2F2F2"/>
<path d="M387.524 341.087H227.072V344.375H387.524V341.087Z" fill="#F2F2F2"/>
<path d="M326.533 306.336H296.977V341.087H326.533V306.336Z" fill="#6C63FF"/>
<path d="M319.262 313.85H304.249V320.424H319.262V313.85Z" fill="#F2F2F2"/>
<path d="M308.706 250.452H305.891V280.507H308.706V250.452Z" fill="#F2F2F2"/>
<path d="M307.298 285.204C309.889 285.204 311.99 283.101 311.99 280.507C311.99 277.914 309.889 275.811 307.298 275.811C304.707 275.811 302.606 277.914 302.606 280.507C302.606 283.101 304.707 285.204 307.298 285.204Z" fill="#F2F2F2"/>
<path d="M425.165 137.276H97.2241L103.056 125.066H421.717L425.165 137.276Z" fill="#6C63FF"/>
<path d="M433.121 165.453H83.7637L89.5951 153.243H429.673L433.121 165.453Z" fill="#6C63FF"/>
<path d="M467.463 94.8586C467.463 94.8586 462.753 106.983 463.737 118.979C463.917 121.127 464.639 123.194 465.836 124.985L408.127 152.41C408.127 152.41 382.051 155.112 388.559 166.511C395.066 177.911 418.656 160.812 418.656 160.812C418.656 160.812 480.478 151.855 485.359 142.898C490.24 133.942 493.494 96.487 493.494 96.487L467.463 94.8586Z" fill="#A0616A"/>
<path d="M469.904 61.4749H482.105C482.105 61.4749 491.053 63.1033 493.494 79.3881C495.934 95.6728 498.374 99.744 495.934 99.744C493.494 99.744 464.209 98.9297 464.209 98.1155C464.209 97.3013 469.904 61.4749 469.904 61.4749Z" fill="#D0CDE1"/>
<path d="M62.5891 304.713C97.1561 304.713 125.178 276.664 125.178 242.063C125.178 207.463 97.1561 179.414 62.5891 179.414C28.0221 179.414 0 207.463 0 242.063C0 276.664 28.0221 304.713 62.5891 304.713Z" fill="#6C63FF"/>
<path opacity="0.1" d="M62.5893 295.942C92.3169 295.942 116.416 271.82 116.416 242.063C116.416 212.307 92.3169 188.185 62.5893 188.185C32.8617 188.185 8.7627 212.307 8.7627 242.063C8.7627 271.82 32.8617 295.942 62.5893 295.942Z" fill="black"/>
<path d="M60.0098 273.857V266.015C56.0496 265.937 51.9527 264.539 49.563 262.598L51.2016 257.396C54.0414 259.527 57.4854 260.696 61.034 260.735C65.882 260.735 69.1594 257.551 69.1594 253.126C69.1594 248.855 66.4964 246.216 61.4437 243.886C54.479 240.781 50.1774 237.209 50.1774 230.454C50.1774 224.01 54.206 219.118 60.4879 217.954V210.112H64.7211V217.643C67.8778 217.686 70.9569 218.629 73.5977 220.361L71.8905 225.485C69.3577 223.75 66.3565 222.829 63.2873 222.845C58.0299 222.845 56.0496 226.417 56.0496 229.523C56.0496 233.56 58.5759 235.579 64.5164 238.374C71.5491 241.635 75.0999 245.672 75.0999 252.582C75.0999 258.716 71.3444 264.462 64.3114 265.781V273.857H60.0098Z" fill="#F2F2F2"/>
</svg>
