<svg width="540" height="333" viewBox="0 0 540 333" fill="none" xmlns="http://www.w3.org/2000/svg">
<g clip-path="url(#clip0_133_568)">
<path d="M77.9282 288.282H459.195V262.171C459.195 256.718 453.41 251.351 443.324 247.445L443.22 247.404C436.411 244.674 392.879 225.251 369.333 225.839C356.894 226.148 346.245 228.543 337.682 232.958C311.027 246.704 276.014 251.782 257.515 247.792C241.212 244.276 196.456 238.461 179.92 238.723C156.76 239.085 156.692 243.481 132.919 257.667C123.839 263.081 120.443 263.76 77.9282 268.079V288.282Z" fill="#F2F2F2"/>
<path d="M16.4623 249.904C15.6321 235.895 20.8669 221.744 31.7137 216.544C29.521 230.977 32.2227 247.015 39.1887 260.919C41.9019 266.335 45.3863 272.116 44.6447 277.775C44.1834 281.296 42.0751 284.091 39.4988 285.911C36.9223 287.731 33.8865 288.703 30.8877 289.656L30.3699 290.274C23.2428 277.734 17.2926 263.912 16.4623 249.904Z" fill="#F2F2F2"/>
<path d="M31.8731 216.801C26.4939 226.21 24.104 237.423 25.099 248.585C25.2636 251.134 25.7662 253.641 26.5899 256.02C27.4908 258.403 28.8724 260.513 30.6232 262.178C32.2437 263.781 34.0417 265.234 35.3394 267.202C35.9798 268.162 36.4433 269.259 36.7019 270.428C36.9606 271.596 37.0092 272.812 36.8448 274.002C36.4665 276.822 35.1815 279.177 33.8469 281.419C32.365 283.908 30.7871 286.462 30.5182 289.664C30.4857 290.052 29.9397 289.888 29.9722 289.5C30.4399 283.928 34.5763 280.54 35.9665 275.466C36.3446 274.24 36.4735 272.933 36.3437 271.642C36.2138 270.351 35.8286 269.111 35.2167 268.013C34.0076 265.932 32.1544 264.432 30.503 262.822C28.7739 261.218 27.3675 259.211 26.3786 256.937C25.4545 254.598 24.8689 252.105 24.6445 249.554C24.0837 244.053 24.3134 238.486 25.3248 233.069C26.4067 227.107 28.4814 221.435 31.4373 216.358C31.6186 216.049 32.0533 216.494 31.8731 216.801V216.801Z" fill="white"/>
<path d="M24.6144 244.835C22.83 244.438 21.199 243.419 19.9482 241.92C18.6973 240.421 17.8889 238.516 17.6353 236.471C17.5961 236.073 18.1414 236.072 18.1806 236.47C18.4139 238.375 19.1669 240.149 20.3336 241.542C21.5003 242.935 23.0221 243.878 24.685 244.238C24.7199 244.243 24.7537 244.255 24.7842 244.275C24.8148 244.295 24.8417 244.321 24.8632 244.353C24.8847 244.384 24.9005 244.42 24.9097 244.459C24.9188 244.497 24.9211 244.538 24.9164 244.577C24.9117 244.617 24.9001 244.655 24.8824 244.689C24.8646 244.724 24.841 244.754 24.8129 244.778C24.7848 244.802 24.7527 244.819 24.7187 244.829C24.6846 244.839 24.6491 244.841 24.6144 244.835V244.835Z" fill="white"/>
<path d="M29.7203 261.472C31.0518 260.345 32.158 258.911 32.9662 257.263C33.7744 255.615 34.2662 253.791 34.4094 251.912C34.4432 251.524 34.9892 251.689 34.9554 252.076C34.803 254.031 34.2876 255.928 33.4432 257.64C32.5988 259.352 31.4445 260.842 30.0565 262.01C29.7909 262.231 29.4562 261.692 29.7203 261.472V261.472Z" fill="white"/>
<path d="M27.0427 227.566C27.665 227.87 28.3453 227.988 29.0191 227.909C29.6929 227.831 30.3378 227.558 30.8926 227.116C31.155 226.892 31.4895 227.431 31.2288 227.655C30.614 228.139 29.9017 228.439 29.1577 228.528C28.4137 228.617 27.662 228.492 26.972 228.163C26.9004 228.14 26.838 228.089 26.7948 228.02C26.7517 227.951 26.7304 227.867 26.7344 227.783C26.7394 227.744 26.7518 227.707 26.7708 227.674C26.7898 227.641 26.8149 227.614 26.8442 227.593C26.8736 227.572 26.9066 227.559 26.9409 227.555C26.9752 227.55 27.0099 227.554 27.0427 227.566H27.0427Z" fill="white"/>
<path d="M71.2885 239.368C71.1288 239.514 70.9692 239.661 70.8102 239.812C68.6778 241.788 66.7127 243.987 64.9405 246.378C64.8006 246.56 64.6616 246.747 64.5273 246.934C60.2874 252.829 57.184 259.669 55.4176 267.012C54.6931 270.006 54.1847 273.063 53.8972 276.151C53.4936 280.458 53.3682 285.212 51.7393 288.81C51.5742 289.187 51.3859 289.55 51.1758 289.896L31.1759 291.05C31.1261 291.026 31.0769 291.008 31.0269 290.984L30.2354 291.072C30.2402 290.909 30.2484 290.74 30.2532 290.576C30.2557 290.481 30.2626 290.386 30.2651 290.291C30.2681 290.227 30.2714 290.164 30.2708 290.106C30.2718 290.085 30.273 290.064 30.2748 290.048C30.2742 289.99 30.2793 289.937 30.2796 289.884C30.3231 288.939 30.371 287.993 30.4283 287.046C30.4274 287.041 30.4274 287.041 30.431 287.036C30.7747 279.92 31.9119 272.883 33.8154 266.092C33.8742 265.894 33.932 265.69 33.9999 265.491C34.8877 262.548 36.0111 259.704 37.3562 256.994C38.0912 255.528 38.9002 254.111 39.7792 252.75C42.0553 249.246 44.8704 246.238 48.0887 243.873C51.3736 241.387 55.0709 239.69 58.9538 238.885C62.8367 238.08 66.8234 238.185 70.6693 239.193C70.8768 239.25 71.0801 239.307 71.2885 239.368Z" fill="#F2F2F2"/>
<path d="M71.2922 239.661C61.9173 242.338 53.6972 248.743 48.1219 257.714C46.898 259.624 45.9824 261.766 45.418 264.04C44.9261 266.404 45.0064 268.875 45.6504 271.191C46.2146 273.444 47.0167 275.71 47.0987 278.001C47.1437 279.123 46.9545 280.24 46.5465 281.263C46.1385 282.285 45.5233 283.183 44.7512 283.883C42.8921 285.637 40.4837 286.44 38.0926 287.128C35.4376 287.891 32.6632 288.635 30.6939 290.737C30.4554 290.991 30.0623 290.501 30.3005 290.246C33.7266 286.589 39.212 286.999 43.1839 284.328C45.0372 283.082 46.4858 281.141 46.5517 278.497C46.6093 276.184 45.7838 273.847 45.1956 271.57C44.5402 269.307 44.3823 266.897 44.7355 264.55C45.1874 262.24 46.0226 260.049 47.1964 258.095C49.7421 253.707 52.9658 249.879 56.7116 246.795C61.0473 243.196 65.9461 240.566 71.1468 239.047C71.4743 238.95 71.6175 239.565 71.2922 239.661H71.2922Z" fill="white"/>
<path d="M49.7219 254.707C46.9426 251.721 46.2472 247.123 48.081 243.966C48.2617 243.655 48.7437 244.027 48.5628 244.339C46.8449 247.296 47.509 251.538 50.107 254.329C50.3804 254.623 49.9937 254.999 49.7219 254.707Z" fill="white"/>
<path d="M45.2349 270.071C46.9217 270.216 48.6168 269.97 50.2174 269.348C51.818 268.727 53.2907 267.742 54.546 266.454C54.7855 266.2 55.1787 266.691 54.9395 266.944C53.6303 268.282 52.0954 269.303 50.4282 269.946C48.761 270.589 46.9961 270.84 45.2408 270.685C44.8869 270.661 44.883 270.047 45.2349 270.071Z" fill="white"/>
<path d="M61.2046 244.042C61.625 244.708 62.1695 245.26 62.7993 245.659C63.4291 246.059 64.1286 246.296 64.8481 246.353C65.2014 246.372 65.205 246.986 64.854 246.967C64.0592 246.9 63.2866 246.637 62.59 246.198C61.8933 245.758 61.2892 245.151 60.8194 244.42C60.7694 244.362 60.741 244.285 60.7403 244.204C60.7395 244.123 60.7664 244.044 60.8153 243.986C60.8743 243.937 60.9474 243.915 61.0198 243.926C61.0922 243.936 61.1583 243.978 61.2046 244.042V244.042Z" fill="white"/>
<path d="M517.191 249.904C518.021 235.895 512.786 221.744 501.94 216.544C504.132 230.977 501.431 247.015 494.465 260.919C491.751 266.335 488.267 272.116 489.008 277.775C489.47 281.296 491.578 284.091 494.154 285.911C496.731 287.731 499.767 288.703 502.766 289.656L503.283 290.274C510.41 277.734 516.361 263.912 517.191 249.904Z" fill="#F2F2F2"/>
<path d="M501.78 216.801C507.159 226.21 509.549 237.423 508.554 248.585C508.389 251.134 507.887 253.641 507.063 256.02C506.162 258.403 504.781 260.513 503.03 262.178C501.409 263.781 499.611 265.234 498.314 267.202C497.673 268.162 497.21 269.259 496.951 270.428C496.692 271.596 496.644 272.812 496.808 274.002C497.187 276.822 498.472 279.177 499.806 281.419C501.288 283.908 502.866 286.462 503.135 289.664C503.167 290.052 503.713 289.888 503.681 289.5C503.213 283.928 499.077 280.54 497.686 275.466C497.308 274.24 497.179 272.933 497.309 271.642C497.439 270.351 497.824 269.111 498.436 268.013C499.645 265.932 501.499 264.432 503.15 262.822C504.879 261.218 506.285 259.211 507.274 256.937C508.199 254.598 508.784 252.105 509.009 249.554C509.569 244.053 509.34 238.486 508.328 233.069C507.246 227.107 505.172 221.435 502.216 216.358C502.034 216.049 501.6 216.494 501.78 216.801V216.801Z" fill="white"/>
<path d="M509.039 244.835C510.823 244.438 512.454 243.419 513.705 241.92C514.956 240.421 515.764 238.516 516.018 236.471C516.057 236.073 515.512 236.072 515.472 236.47C515.239 238.375 514.486 240.149 513.32 241.542C512.153 242.935 510.631 243.878 508.968 244.238C508.933 244.243 508.899 244.255 508.869 244.275C508.838 244.295 508.811 244.321 508.79 244.353C508.768 244.384 508.753 244.42 508.743 244.459C508.734 244.497 508.732 244.538 508.737 244.577C508.741 244.617 508.753 244.655 508.771 244.689C508.789 244.724 508.812 244.754 508.84 244.778C508.868 244.802 508.9 244.819 508.934 244.829C508.969 244.839 509.004 244.841 509.039 244.835V244.835Z" fill="white"/>
<path d="M503.933 261.472C502.602 260.345 501.495 258.911 500.687 257.263C499.879 255.615 499.387 253.791 499.244 251.912C499.21 251.524 498.664 251.689 498.698 252.076C498.85 254.031 499.366 255.928 500.21 257.64C501.054 259.352 502.209 260.842 503.597 262.01C503.862 262.231 504.197 261.692 503.933 261.472V261.472Z" fill="white"/>
<path d="M506.611 227.566C505.988 227.87 505.308 227.988 504.634 227.909C503.96 227.831 503.316 227.558 502.761 227.116C502.498 226.892 502.164 227.431 502.424 227.655C503.039 228.139 503.752 228.439 504.496 228.528C505.24 228.617 505.991 228.492 506.681 228.163C506.753 228.14 506.815 228.089 506.859 228.02C506.902 227.951 506.923 227.867 506.919 227.783C506.914 227.744 506.902 227.707 506.883 227.674C506.864 227.641 506.839 227.614 506.809 227.593C506.78 227.572 506.747 227.559 506.712 227.555C506.678 227.55 506.643 227.554 506.611 227.566H506.611Z" fill="white"/>
<path d="M462.364 239.368C462.524 239.514 462.684 239.661 462.842 239.812C464.975 241.788 466.94 243.986 468.712 246.378C468.852 246.56 468.991 246.747 469.125 246.934C473.365 252.829 476.469 259.669 478.235 267.012C478.96 270.006 479.468 273.063 479.755 276.151C480.159 280.458 480.285 285.212 481.913 288.81C482.078 289.187 482.267 289.55 482.477 289.896L502.477 291.05C502.527 291.026 502.576 291.008 502.626 290.984L503.417 291.072C503.412 290.909 503.404 290.74 503.399 290.576C503.397 290.481 503.39 290.386 503.388 290.291C503.385 290.227 503.381 290.164 503.382 290.106C503.381 290.085 503.38 290.064 503.378 290.048C503.378 289.99 503.373 289.937 503.373 289.884C503.33 288.939 503.282 287.993 503.224 287.046C503.225 287.041 503.225 287.041 503.222 287.036C502.878 279.92 501.741 272.883 499.837 266.092C499.778 265.894 499.721 265.69 499.653 265.491C498.765 262.548 497.642 259.704 496.296 256.994C495.562 255.528 494.753 254.111 493.873 252.75C491.597 249.246 488.782 246.238 485.564 243.873C482.279 241.387 478.582 239.69 474.699 238.885C470.816 238.08 466.829 238.185 462.983 239.193C462.776 239.25 462.573 239.306 462.364 239.368Z" fill="#F2F2F2"/>
<path d="M462.36 239.661C471.735 242.338 479.955 248.743 485.531 257.714C486.755 259.624 487.67 261.766 488.235 264.04C488.726 266.404 488.646 268.875 488.002 271.191C487.438 273.444 486.636 275.71 486.554 278.001C486.509 279.123 486.698 280.24 487.106 281.263C487.514 282.285 488.129 283.183 488.901 283.883C490.761 285.637 493.169 286.44 495.56 287.128C498.215 287.891 500.989 288.635 502.959 290.737C503.197 290.991 503.59 290.501 503.352 290.246C499.926 286.589 494.441 286.999 490.469 284.328C488.615 283.082 487.167 281.141 487.101 278.497C487.043 276.184 487.869 273.847 488.457 271.57C489.112 269.307 489.27 266.897 488.917 264.55C488.465 262.24 487.63 260.049 486.456 258.095C483.911 253.707 480.687 249.879 476.941 246.795C472.605 243.196 467.706 240.566 462.506 239.047C462.178 238.95 462.035 239.565 462.36 239.661V239.661Z" fill="white"/>
<path d="M483.931 254.707C486.71 251.721 487.405 247.123 485.572 243.966C485.391 243.655 484.909 244.027 485.09 244.339C486.808 247.296 486.144 251.538 483.546 254.329C483.272 254.623 483.659 254.999 483.931 254.707Z" fill="white"/>
<path d="M488.419 270.071C486.732 270.216 485.037 269.97 483.436 269.348C481.836 268.727 480.363 267.742 479.108 266.454C478.868 266.2 478.475 266.691 478.714 266.944C480.023 268.282 481.558 269.303 483.225 269.946C484.893 270.589 486.657 270.84 488.413 270.685C488.767 270.661 488.771 270.047 488.419 270.071V270.071Z" fill="white"/>
<path d="M472.449 244.042C472.028 244.708 471.484 245.26 470.854 245.659C470.224 246.059 469.525 246.296 468.805 246.353C468.452 246.372 468.448 246.986 468.799 246.967C469.594 246.9 470.367 246.637 471.063 246.198C471.76 245.758 472.364 245.151 472.834 244.42C472.884 244.362 472.912 244.285 472.913 244.204C472.914 244.123 472.887 244.044 472.838 243.986C472.779 243.937 472.706 243.915 472.633 243.926C472.561 243.936 472.495 243.978 472.449 244.042V244.042Z" fill="white"/>
<path d="M34.1939 180.553H30.5278V181.941H34.1939V180.553Z" fill="#E6E6E6"/>
<path d="M495.584 181.941H488.142V180.553H495.584V181.941ZM480.7 181.941H473.259V180.553H480.7V181.941ZM465.817 181.941H458.375V180.553H465.817V181.941ZM450.933 181.941H443.492V180.553H450.933V181.941ZM436.05 181.941H428.608V180.553H436.05V181.941ZM421.166 181.941H413.724V180.553H421.166V181.941ZM406.283 181.941H398.841V180.553H406.283V181.941ZM391.399 181.941H383.957V180.553H391.399L391.399 181.941ZM376.516 181.941H369.074V180.553H376.516V181.941ZM361.632 181.941H354.19V180.553H361.632V181.941ZM346.749 181.941H339.307V180.553H346.749V181.941ZM331.865 181.941H324.423V180.553H331.865V181.941ZM316.982 181.941H309.54V180.553H316.982V181.941ZM302.098 181.941H294.656V180.553H302.098V181.941ZM287.215 181.941H279.773V180.553H287.215V181.941ZM272.331 181.941H264.889V180.553H272.331V181.941ZM257.447 181.941H250.006V180.553H257.447V181.941ZM242.564 181.941H235.122V180.553H242.564V181.941ZM227.68 181.941H220.238V180.553H227.68V181.941ZM212.797 181.941H205.355V180.553H212.797V181.941ZM197.913 181.941H190.471V180.553H197.913V181.941ZM183.029 181.941H175.588V180.553H183.029V181.941ZM168.146 181.941H160.704V180.553H168.146V181.941ZM153.262 181.941H145.821V180.553H153.262L153.262 181.941ZM138.379 181.941H130.937V180.553H138.379V181.941ZM123.495 181.941H116.053V180.553H123.495V181.941ZM108.612 181.941H101.17V180.553H108.612V181.941ZM93.7283 181.941H86.2864V180.553H93.7283V181.941ZM78.8446 181.941H71.4028V180.553H78.8446V181.941ZM63.9609 181.941H56.5194V180.553H63.9609V181.941ZM49.0776 181.941H41.6357V180.553H49.0776V181.941Z" fill="#E6E6E6"/>
<path d="M506.691 180.553H503.025V181.941H506.691V180.553Z" fill="#E6E6E6"/>
<path d="M34.1939 170.835H30.5278V172.224H34.1939V170.835Z" fill="#E6E6E6"/>
<path d="M495.584 172.224H488.142V170.835H495.584V172.224ZM480.7 172.224H473.259V170.835H480.7V172.224ZM465.817 172.224H458.375V170.835H465.817V172.224ZM450.933 172.224H443.492V170.835H450.933V172.224ZM436.05 172.224H428.608V170.835H436.05V172.224ZM421.166 172.224H413.724V170.835H421.166V172.224ZM406.283 172.224H398.841V170.835H406.283V172.224ZM391.399 172.224H383.957V170.835H391.399L391.399 172.224ZM376.516 172.224H369.074V170.835H376.516V172.224ZM361.632 172.224H354.19V170.835H361.632V172.224ZM346.749 172.224H339.307V170.835H346.749V172.224ZM331.865 172.224H324.423V170.835H331.865V172.224ZM316.982 172.224H309.54V170.835H316.982V172.224ZM302.098 172.224H294.656V170.835H302.098V172.224ZM287.215 172.224H279.773V170.835H287.215V172.224ZM272.331 172.224H264.889V170.835H272.331V172.224ZM257.447 172.224H250.006V170.835H257.447V172.224ZM242.564 172.224H235.122V170.835H242.564V172.224ZM227.68 172.224H220.238V170.835H227.68V172.224ZM212.797 172.224H205.355V170.835H212.797V172.224ZM197.913 172.224H190.471V170.835H197.913V172.224ZM183.029 172.224H175.588V170.835H183.029V172.224ZM168.146 172.224H160.704V170.835H168.146V172.224ZM153.262 172.224H145.821V170.835H153.262L153.262 172.224ZM138.379 172.224H130.937V170.835H138.379V172.224ZM123.495 172.224H116.053V170.835H123.495V172.224ZM108.612 172.224H101.17V170.835H108.612V172.224ZM93.7283 172.224H86.2864V170.835H93.7283V172.224ZM78.8446 172.224H71.4028V170.835H78.8446V172.224ZM63.9609 172.224H56.5194V170.835H63.9609V172.224ZM49.0776 172.224H41.6357V170.835H49.0776V172.224Z" fill="#E6E6E6"/>
<path d="M506.691 170.835H503.025V172.224H506.691V170.835Z" fill="#E6E6E6"/>
<path d="M34.1939 150.706H30.5278V152.094H34.1939V150.706Z" fill="#E6E6E6"/>
<path d="M495.584 152.094H488.142V150.706H495.584V152.094ZM480.7 152.094H473.259V150.706H480.7V152.094ZM465.817 152.094H458.375V150.706H465.817V152.094ZM450.933 152.094H443.492V150.706H450.933V152.094ZM436.05 152.094H428.608V150.706H436.05V152.094ZM421.166 152.094H413.724V150.706H421.166V152.094ZM406.283 152.094H398.841V150.706H406.283V152.094ZM391.399 152.094H383.957V150.706H391.399L391.399 152.094ZM376.516 152.094H369.074V150.706H376.516V152.094ZM361.632 152.094H354.19V150.706H361.632V152.094ZM346.749 152.094H339.307V150.706H346.749V152.094ZM331.865 152.094H324.423V150.706H331.865V152.094ZM316.982 152.094H309.54V150.706H316.982V152.094ZM302.098 152.094H294.656V150.706H302.098V152.094ZM287.215 152.094H279.773V150.706H287.215V152.094ZM272.331 152.094H264.889V150.706H272.331V152.094ZM257.447 152.094H250.006V150.706H257.447V152.094ZM242.564 152.094H235.122V150.706H242.564V152.094ZM227.68 152.094H220.238V150.706H227.68V152.094ZM212.797 152.094H205.355V150.706H212.797V152.094ZM197.913 152.094H190.471V150.706H197.913V152.094ZM183.029 152.094H175.588V150.706H183.029V152.094ZM168.146 152.094H160.704V150.706H168.146V152.094ZM153.262 152.094H145.821V150.706H153.262L153.262 152.094ZM138.379 152.094H130.937V150.706H138.379V152.094ZM123.495 152.094H116.053V150.706H123.495V152.094ZM108.612 152.094H101.17V150.706H108.612V152.094ZM93.7283 152.094H86.2864V150.706H93.7283V152.094ZM78.8446 152.094H71.4028V150.706H78.8446V152.094ZM63.9609 152.094H56.5194V150.706H63.9609V152.094ZM49.0776 152.094H41.6357V150.706H49.0776V152.094Z" fill="#E6E6E6"/>
<path d="M506.691 150.706H503.025V152.094H506.691V150.706Z" fill="#E6E6E6"/>
<path d="M34.1939 136.823H30.5278V138.211H34.1939V136.823Z" fill="#E6E6E6"/>
<path d="M495.584 138.211H488.142V136.823H495.584V138.211ZM480.7 138.211H473.259V136.823H480.7V138.211ZM465.817 138.211H458.375V136.823H465.817V138.211ZM450.933 138.211H443.492V136.823H450.933V138.211ZM436.05 138.211H428.608V136.823H436.05V138.211ZM421.166 138.211H413.724V136.823H421.166V138.211ZM406.283 138.211H398.841V136.823H406.283V138.211ZM391.399 138.211H383.957V136.823H391.399L391.399 138.211ZM376.516 138.211H369.074V136.823H376.516V138.211ZM361.632 138.211H354.19V136.823H361.632V138.211ZM346.749 138.211H339.307V136.823H346.749V138.211ZM331.865 138.211H324.423V136.823H331.865V138.211ZM316.982 138.211H309.54V136.823H316.982V138.211ZM302.098 138.211H294.656V136.823H302.098V138.211ZM287.215 138.211H279.773V136.823H287.215V138.211ZM272.331 138.211H264.889V136.823H272.331V138.211ZM257.447 138.211H250.006V136.823H257.447V138.211ZM242.564 138.211H235.122V136.823H242.564V138.211ZM227.68 138.211H220.238V136.823H227.68V138.211ZM212.797 138.211H205.355V136.823H212.797V138.211ZM197.913 138.211H190.471V136.823H197.913V138.211ZM183.029 138.211H175.588V136.823H183.029V138.211ZM168.146 138.211H160.704V136.823H168.146V138.211ZM153.262 138.211H145.821V136.823H153.262L153.262 138.211ZM138.379 138.211H130.937V136.823H138.379V138.211ZM123.495 138.211H116.053V136.823H123.495V138.211ZM108.612 138.211H101.17V136.823H108.612V138.211ZM93.7283 138.211H86.2864V136.823H93.7283V138.211ZM78.8446 138.211H71.4028V136.823H78.8446V138.211ZM63.9609 138.211H56.5194V136.823H63.9609V138.211ZM49.0776 138.211H41.6357V136.823H49.0776V138.211Z" fill="#E6E6E6"/>
<path d="M506.691 136.823H503.025V138.211H506.691V136.823Z" fill="#E6E6E6"/>
<path d="M34.1939 106.976H30.5278V108.364H34.1939V106.976Z" fill="#E6E6E6"/>
<path d="M495.584 108.364H488.142V106.976H495.584V108.364ZM480.7 108.364H473.259V106.976H480.7V108.364ZM465.817 108.364H458.375V106.976H465.817V108.364ZM450.933 108.364H443.492V106.976H450.933V108.364ZM436.05 108.364H428.608V106.976H436.05V108.364ZM421.166 108.364H413.724V106.976H421.166V108.364ZM406.283 108.364H398.841V106.976H406.283V108.364ZM391.399 108.364H383.957V106.976H391.399L391.399 108.364ZM376.516 108.364H369.074V106.976H376.516V108.364ZM361.632 108.364H354.19V106.976H361.632V108.364ZM346.749 108.364H339.307V106.976H346.749V108.364ZM331.865 108.364H324.423V106.976H331.865V108.364ZM316.982 108.364H309.54V106.976H316.982V108.364ZM302.098 108.364H294.656V106.976H302.098V108.364ZM287.215 108.364H279.773V106.976H287.215V108.364ZM272.331 108.364H264.889V106.976H272.331V108.364ZM257.447 108.364H250.006V106.976H257.447V108.364ZM242.564 108.364H235.122V106.976H242.564V108.364ZM227.68 108.364H220.238V106.976H227.68V108.364ZM212.797 108.364H205.355V106.976H212.797V108.364ZM197.913 108.364H190.471V106.976H197.913V108.364ZM183.029 108.364H175.588V106.976H183.029V108.364ZM168.146 108.364H160.704V106.976H168.146V108.364ZM153.262 108.364H145.821V106.976H153.262L153.262 108.364ZM138.379 108.364H130.937V106.976H138.379V108.364ZM123.495 108.364H116.053V106.976H123.495V108.364ZM108.612 108.364H101.17V106.976H108.612V108.364ZM93.7283 108.364H86.2864V106.976H93.7283V108.364ZM78.8446 108.364H71.4028V106.976H78.8446V108.364ZM63.9609 108.364H56.5194V106.976H63.9609V108.364ZM49.0776 108.364H41.6357V106.976H49.0776V108.364Z" fill="#E6E6E6"/>
<path d="M506.691 106.976H503.025V108.364H506.691V106.976Z" fill="#E6E6E6"/>
<path d="M208.04 66.8644C208.04 74.3374 206.089 81.6427 202.435 87.8563C198.78 94.0699 193.585 98.9129 187.508 101.773C181.431 104.633 174.743 105.381 168.292 103.923C161.84 102.465 155.914 98.8663 151.262 93.5821C146.611 88.2978 143.443 81.5653 142.16 74.2358C140.876 66.9063 141.535 59.3091 144.052 52.4049C146.57 45.5007 150.833 39.5996 156.302 35.4477C161.772 31.2959 168.202 29.0799 174.78 29.0799C179.153 29.0578 183.487 30.02 187.531 31.9111C191.575 33.8021 195.249 36.5844 198.342 40.0974C201.434 43.6105 203.883 47.7846 205.548 52.3788C207.212 56.973 208.059 61.8963 208.04 66.8644V66.8644Z" fill="#F2F2F2"/>
<path d="M188.382 57.8237L188.218 58.1607C189.682 54.0596 188.35 49.0061 185.737 45.9137C183.124 42.8214 179.492 41.4076 175.915 40.8468C173.26 40.3147 170.529 40.5558 167.979 41.5474C164.322 43.1475 161.529 46.8517 159.197 50.705C158.13 52.4675 157.081 54.4768 157.187 56.6797C157.286 58.724 158.354 60.4588 159.229 62.1932C160.103 63.9276 160.834 66.0795 160.206 67.9725C159.832 69.1005 159.041 69.913 158.4 70.8358C157.758 71.7586 157.231 73.0059 157.54 74.1637C157.678 74.6067 157.914 75.0016 158.226 75.3097C158.539 75.6178 158.916 75.8287 159.321 75.9217C160.106 76.0706 160.909 76.049 161.687 75.8581L182.075 72.3586C183.46 72.1208 184.775 71.5059 185.906 70.5664C187.037 69.6268 187.951 68.3905 188.571 66.9627C189.19 65.535 189.497 63.9583 189.464 62.367C189.431 60.7756 189.06 59.2169 188.382 57.8237V57.8237Z" fill="#2F2E41"/>
<path d="M173.217 72.1972C178.723 72.1972 183.186 67.127 183.186 60.8727C183.186 54.6184 178.723 49.5483 173.217 49.5483C167.712 49.5483 163.249 54.6184 163.249 60.8727C163.249 67.127 167.712 72.1972 173.217 72.1972Z" fill="#FFB9B9"/>
<path d="M199.754 91.812C193.992 99.2604 185.883 103.836 177.177 104.551C168.471 105.265 159.867 102.062 153.222 95.6324L156.074 86.5893C156.719 84.9831 157.736 83.6066 159.017 82.6073C160.298 81.608 161.795 81.0237 163.346 80.917L165.16 80.7904L169.488 76.5503C169.488 76.5503 181.148 76.0773 180.975 75.8508L188.038 80.6771L188.032 80.6438L190.809 80.837C192.36 80.9433 193.856 81.5274 195.137 82.5268C196.418 83.5261 197.436 84.9029 198.08 86.5093L199.754 91.812Z" fill="#6C63FF"/>
<path d="M182.672 50.3623C182.415 48.8158 181.027 48.1085 179.837 47.7658C176.387 46.7657 172.798 46.5418 169.272 47.1067C166.701 47.5231 164.07 48.4413 162.205 50.7206C160.701 52.6398 159.849 55.1053 159.802 57.6742C159.725 59.2102 160.028 60.74 160.674 62.0918C160.963 62.7212 161.391 63.2544 161.917 63.639C162.442 64.0236 163.046 64.2464 163.67 64.2856L163.79 64.7581C166.37 64.2858 168.83 63.1858 171.002 61.5334C173.173 59.881 175.005 57.7152 176.371 55.1841C175.822 57.4133 174.728 59.4202 173.217 60.9731C176.596 59.4372 179.533 56.8656 181.701 53.5449C182.293 52.6521 182.868 51.5388 182.672 50.3623Z" fill="#2F2E41"/>
<path d="M458.21 116.625C476.579 116.625 491.469 99.7087 491.469 78.8409C491.469 57.9731 476.579 41.0564 458.21 41.0564C439.841 41.0564 424.95 57.9731 424.95 78.8409C424.95 99.7087 439.841 116.625 458.21 116.625Z" fill="#F2F2F2"/>
<path d="M449.077 64.6629C451.67 64.6629 453.772 62.2745 453.772 59.3284C453.772 56.3822 451.67 53.9938 449.077 53.9938C446.483 53.9938 444.381 56.3822 444.381 59.3284C444.381 62.2745 446.483 64.6629 449.077 64.6629Z" fill="#2F2E41"/>
<path d="M456.59 84.9341C463.16 84.9341 468.486 78.8836 468.486 71.42C468.486 63.9563 463.16 57.9058 456.59 57.9058C450.02 57.9058 444.694 63.9563 444.694 71.42C444.694 78.8836 450.02 84.9341 456.59 84.9341Z" fill="#2F2E41"/>
<path d="M457.575 84.9308C462.914 84.9308 467.242 80.0141 467.242 73.949C467.242 67.8839 462.914 62.9672 457.575 62.9672C452.236 62.9672 447.908 67.8839 447.908 73.949C447.908 80.0141 452.236 84.9308 457.575 84.9308Z" fill="#9E616A"/>
<path d="M464.139 62.7546C462.445 61.5815 460.505 60.9468 458.522 60.9171C456.538 60.8874 454.584 61.4637 452.863 62.5857C451.143 63.7077 449.719 65.3343 448.741 67.2953C447.763 69.2562 447.267 71.4796 447.305 73.733C452.23 75.1379 457.405 76.2131 462.658 74.069L463.898 70.62L464.63 74.0716C466.229 74.8144 467.833 75.4429 469.437 74.0644C469.503 71.8174 469.048 69.5903 468.118 67.6056C467.188 65.6209 465.816 63.9481 464.139 62.7546V62.7546Z" fill="#2F2E41"/>
<path d="M444.705 44.8471C443.057 44.0477 441.244 43.7884 439.472 44.0984C437.701 44.4085 436.041 45.2755 434.68 46.6016C433.35 47.9654 432.337 49.6819 431.732 51.5983C431.127 53.5146 430.949 55.5711 431.213 57.5847C431.746 61.6801 433.937 65.2068 435.958 68.6523C437.978 72.0978 439.951 75.8733 439.949 80.0131C439.948 82.9948 438.905 85.8541 437.05 87.964C435.196 90.0739 432.68 91.262 430.056 91.268C433.136 92.7745 436.351 94.3106 439.701 94.132C443.052 93.9534 446.563 91.5068 447.109 87.7476C447.503 85.039 446.333 82.3978 445.358 79.8861C443.769 75.7935 442.62 71.498 441.937 67.0928C441.611 64.9903 441.399 62.7799 442.002 60.7581C442.483 59.2599 443.374 57.9767 444.545 57.0979C445.717 56.219 447.105 55.7909 448.507 55.8767L449.614 54.7454C449.803 52.7205 449.433 50.6788 448.553 48.9046C447.673 47.1305 446.328 45.7122 444.705 44.8471V44.8471Z" fill="#2F2E41"/>
<path d="M483.236 104.122C477.473 111.57 469.364 116.145 460.658 116.86C451.952 117.575 443.348 114.372 436.703 107.942L439.556 98.8989C440.201 97.2927 441.218 95.9162 442.499 94.9169C443.78 93.9176 445.276 93.3333 446.827 93.2265L448.642 93.1L452.969 88.8599C452.969 88.8599 464.63 88.3869 464.457 88.1604L471.52 92.9867L471.514 92.9534L474.29 93.1465C475.841 93.2528 477.338 93.837 478.619 94.8363C479.9 95.8356 480.917 97.2124 481.562 98.8189L483.236 104.122Z" fill="#6C63FF"/>
<path d="M396.84 38.6372C396.828 46.1103 394.866 53.4116 391.202 59.6178C387.537 65.8241 382.335 70.6565 376.253 73.5041C370.172 76.3517 363.483 77.0864 357.034 75.6155C350.584 74.1446 344.663 70.5341 340.02 65.2404C335.377 59.9468 332.22 53.2079 330.948 45.8759C329.676 38.5438 330.347 30.948 332.875 24.0488C335.403 17.1497 339.675 11.2572 345.151 7.1164C350.627 2.97561 357.061 0.772545 363.639 0.785796C368.01 0.781712 372.338 1.75896 376.376 3.66138C380.413 5.5638 384.08 8.35388 387.165 11.8713C390.25 15.3887 392.693 19.5641 394.354 24.1574C396.014 28.7508 396.859 33.6717 396.84 38.6372V38.6372Z" fill="#F2F2F2"/>
<path d="M348.165 26.279C349.54 21.2997 352.668 16.733 356.993 15.0497C361.318 13.3665 367.652 15.9306 370.903 19.6122C376.851 26.3466 378.303 49.4818 374.216 56.7927C373.404 56.7439 370.599 56.7077 369.776 56.6727L368.612 52.2662V56.6293C367.302 56.5833 365.981 56.5515 364.65 56.534C360.187 56.4711 355.919 54.4449 352.743 50.8813C349.568 47.3178 347.733 42.4944 347.623 37.4253C347.516 32.5759 347.623 28.2412 348.165 26.279Z" fill="#2F2E41"/>
<path d="M363.087 42.7813C368.322 42.7813 372.566 37.9601 372.566 32.013C372.566 26.0658 368.322 21.2447 363.087 21.2447C357.852 21.2447 353.608 26.0658 353.608 32.013C353.608 37.9601 357.852 42.7813 363.087 42.7813Z" fill="#9E616A"/>
<path d="M354.906 22.5558L365.82 16.3475C368.051 17.4897 369.973 19.2893 371.386 21.5596C372.799 23.8299 373.651 26.4883 373.855 29.259L374.127 32.9607L369.556 31.6391L369.056 26.9057L368.28 31.2699L366.17 30.6602L366.191 23.3116L364.08 30.655L356.547 28.6889L354.906 22.5558Z" fill="#2F2E41"/>
<path d="M388.261 63.5744C382.499 71.0228 374.389 75.5983 365.684 76.3131C356.978 77.0278 348.374 73.8246 341.729 67.3949L344.581 58.3517C345.226 56.7456 346.243 55.369 347.524 54.3698C348.805 53.3705 350.301 52.7861 351.852 52.6794L353.667 52.5529L357.995 48.3128C357.995 48.3128 369.655 47.8398 369.482 47.6133L376.545 52.4396L376.539 52.4063L379.316 52.5995C380.867 52.7057 382.363 53.2899 383.644 54.2892C384.925 55.2886 385.942 56.6653 386.587 58.2718L388.261 63.5744Z" fill="#6C63FF"/>
<path d="M272.146 137.449C290.515 137.449 305.406 120.533 305.406 99.6647C305.406 78.7969 290.515 61.8802 272.146 61.8802C253.778 61.8802 238.887 78.7969 238.887 99.6647C238.887 120.533 253.778 137.449 272.146 137.449Z" fill="#F2F2F2"/>
<path d="M271.229 104.345C277.092 104.345 281.845 98.9454 281.845 92.2842C281.845 85.6229 277.092 80.223 271.229 80.223C265.365 80.223 260.612 85.6229 260.612 92.2842C260.612 98.9454 265.365 104.345 271.229 104.345Z" fill="#FFB6B6"/>
<path d="M297.098 124.945C291.336 132.394 283.227 136.969 274.521 137.684C265.815 138.399 257.211 135.196 250.566 128.766L253.419 119.723C254.063 118.117 255.081 116.74 256.362 115.741C257.643 114.741 259.139 114.157 260.69 114.05L262.505 113.924L266.832 109.684C266.832 109.684 278.492 109.211 278.319 108.984L285.382 113.811L285.377 113.777L288.153 113.97C289.704 114.077 291.201 114.661 292.482 115.66C293.763 116.659 294.78 118.036 295.424 119.643L297.098 124.945Z" fill="#6C63FF"/>
<path d="M282.426 84.8041C281.529 81.1561 279.49 78.0055 276.693 75.9437C274.464 74.3241 271.683 73.4973 269.158 74.3538C266.633 75.2103 264.542 78.0256 264.707 81.0674C264.239 80.9278 263.747 80.9397 263.284 81.1018C262.822 81.2639 262.409 81.5698 262.092 81.9848C261.459 82.8345 261.018 83.8477 260.809 84.9357C259.999 88.3461 260.053 91.9471 260.964 95.3244L260.914 95.8091C262.146 95.5776 263.081 94.3768 263.662 93.0973C264.243 91.8179 264.577 90.3985 265.207 89.1504C265.837 87.9022 266.883 86.7889 268.13 86.7499L268.02 88.9165C269.094 88.2882 270.167 87.6599 271.24 87.0317C270.985 87.7255 270.73 88.4194 270.474 89.1132C271.412 88.6681 272.349 88.223 273.287 87.7779C273.182 88.4451 273.077 89.1123 272.972 89.7795C273.218 89.2003 273.565 88.6838 273.991 88.2613C274.418 87.8387 274.915 87.5189 275.454 87.321C275.992 87.1232 276.561 87.0516 277.124 87.1105C277.688 87.1693 278.235 87.3575 278.733 87.6635C279.854 88.5204 280.662 89.8117 281.006 91.2961C281.346 92.7772 281.529 94.2993 281.55 95.8298C282.999 92.3935 283.309 88.4794 282.426 84.8041V84.8041Z" fill="#2F2E41"/>
<path d="M79.5956 154.626C97.9644 154.626 112.855 137.71 112.855 116.842C112.855 95.974 97.9644 79.0573 79.5956 79.0573C61.2268 79.0573 46.3359 95.974 46.3359 116.842C46.3359 137.71 61.2268 154.626 79.5956 154.626Z" fill="#F2F2F2"/>
<path d="M78.8631 120.761C84.4357 120.761 88.9533 115.629 88.9533 109.298C88.9533 102.967 84.4357 97.8353 78.8631 97.8353C73.2905 97.8353 68.7729 102.967 68.7729 109.298C68.7729 115.629 73.2905 120.761 78.8631 120.761Z" fill="#9E616A"/>
<path d="M104.119 141.789C98.3572 149.238 90.2479 153.813 81.542 154.528C72.8361 155.243 64.2319 152.039 57.5869 145.61L60.4397 136.567C61.0844 134.96 62.1017 133.584 63.3827 132.585C64.6636 131.585 66.1598 131.001 67.7108 130.894L69.5257 130.768L73.8532 126.528C73.8532 126.528 85.5134 126.055 85.3404 125.828L92.4034 130.654L92.3976 130.621L95.1741 130.814C96.7252 130.921 98.2216 131.505 99.5026 132.504C100.784 133.503 101.801 134.88 102.445 136.487L104.119 141.789Z" fill="#6C63FF"/>
<path d="M69.6952 114.598C69.6754 114.535 69.6573 114.472 69.6377 114.409C69.5989 114.448 69.5617 114.488 69.5195 114.524L69.6952 114.598Z" fill="#2F2E41"/>
<path d="M90.9501 105.22C90.8983 104.057 90.6301 102.92 90.1632 101.883C89.6963 100.846 89.0413 99.9335 88.2413 99.2052C87.6047 98.7533 87.0435 98.1769 86.5836 97.5029C86.3616 96.9876 86.1734 96.4544 86.0205 95.9075C85.246 93.813 83.0384 92.6999 81.0582 93.017C80.0735 93.2296 79.1366 93.6655 78.3036 94.2988C77.4706 94.932 76.7585 95.7496 76.21 96.7026C75.6413 96.393 75.0063 96.2751 74.3804 96.3627C73.7545 96.4503 73.1638 96.7399 72.6783 97.1971C72.1927 97.6543 71.8327 98.26 71.6407 98.9425C71.4488 99.6249 71.433 100.356 71.5953 101.048C70.5698 100.109 68.9111 100.86 68.271 102.167C67.6309 103.475 67.7325 105.074 67.9228 106.555C68.2676 109.23 68.8419 111.861 69.6375 114.409C70.636 113.41 70.5747 111.591 70.4526 110.053C70.3258 108.456 70.4018 106.505 71.6315 105.717C72.8195 104.955 74.2614 105.791 75.5714 106.224C76.607 106.557 77.694 106.631 78.7574 106.441C79.8207 106.251 80.8351 105.802 81.7308 105.123C82.3753 104.541 83.0518 104.005 83.7562 103.52C84.1119 103.282 84.5159 103.152 84.9289 103.144C85.3419 103.135 85.7498 103.249 86.1127 103.473C86.6872 104.035 87.0731 104.806 87.2053 105.654C87.7097 107.597 88.214 109.54 88.7184 111.483C89.4588 110.678 90.0405 109.703 90.4252 108.623C90.8098 107.544 90.9887 106.384 90.9501 105.22V105.22Z" fill="#2F2E41"/>
<path d="M79.7061 183.706H76.5312V289.424H79.7061V183.706Z" fill="#3F3D56"/>
<path d="M174.756 134.332H171.581V289.424H174.756V134.332Z" fill="#3F3D56"/>
<path d="M270.002 166.793H266.827V289.424H270.002V166.793Z" fill="#3F3D56"/>
<path d="M365.247 107.282H362.072V289.424H365.247V107.282Z" fill="#3F3D56"/>
<path d="M460.492 148.76H457.317V289.424H460.492V148.76Z" fill="#3F3D56"/>
<path d="M173.364 147.852C178.728 147.852 183.077 142.912 183.077 136.818C183.077 130.725 178.728 125.785 173.364 125.785C168 125.785 163.652 130.725 163.652 136.818C163.652 142.912 168 147.852 173.364 147.852Z" fill="#6C63FF"/>
<path d="M363.855 118.998C369.219 118.998 373.567 114.058 373.567 107.964C373.567 101.87 369.219 96.9305 363.855 96.9305C358.491 96.9305 354.143 101.87 354.143 107.964C354.143 114.058 358.491 118.998 363.855 118.998Z" fill="#6C63FF"/>
<path d="M268.61 178.51C273.974 178.51 278.322 173.57 278.322 167.476C278.322 161.382 273.974 156.442 268.61 156.442C263.246 156.442 258.897 161.382 258.897 167.476C258.897 173.57 263.246 178.51 268.61 178.51Z" fill="#6C63FF"/>
<path d="M78.1186 194.74C83.4826 194.74 87.831 189.8 87.831 183.707C87.831 177.613 83.4826 172.673 78.1186 172.673C72.7546 172.673 68.4062 177.613 68.4062 183.707C68.4062 189.8 72.7546 194.74 78.1186 194.74Z" fill="#6C63FF"/>
<path d="M459.101 158.672C464.465 158.672 468.813 153.733 468.813 147.639C468.813 141.545 464.465 136.605 459.101 136.605C453.737 136.605 449.389 141.545 449.389 147.639C449.389 153.733 453.737 158.672 459.101 158.672Z" fill="#6C63FF"/>
<path d="M527.231 288.334H11.6081L8.37061 290.173C8.37062 290.661 8.54117 291.128 8.84474 291.473C9.1483 291.818 9.56003 292.012 9.98933 292.012H527.231C527.66 292.012 528.072 291.818 528.375 291.473C528.679 291.128 528.849 290.661 528.849 290.173C528.849 289.685 528.679 289.217 528.375 288.873C528.072 288.528 527.66 288.334 527.231 288.334Z" fill="#3F3D56"/>
<path d="M9.71238 300.336C15.0764 300.336 19.4248 295.396 19.4248 289.302C19.4248 283.208 15.0764 278.268 9.71238 278.268C4.34838 278.268 0 283.208 0 289.302C0 295.396 4.34838 300.336 9.71238 300.336Z" fill="#3F3D56"/>
<path d="M78.145 332.266C83.509 332.266 87.8574 327.326 87.8574 321.232C87.8574 315.138 83.509 310.198 78.145 310.198C72.781 310.198 68.4326 315.138 68.4326 321.232C68.4326 327.326 72.781 332.266 78.145 332.266Z" fill="#E6E6E6"/>
<path d="M173.461 332.266C178.825 332.266 183.174 327.326 183.174 321.232C183.174 315.138 178.825 310.198 173.461 310.198C168.097 310.198 163.749 315.138 163.749 321.232C163.749 327.326 168.097 332.266 173.461 332.266Z" fill="#E6E6E6"/>
<path d="M268.778 332.266C274.142 332.266 278.49 327.326 278.49 321.232C278.49 315.138 274.142 310.198 268.778 310.198C263.414 310.198 259.065 315.138 259.065 321.232C259.065 327.326 263.414 332.266 268.778 332.266Z" fill="#E6E6E6"/>
<path d="M363.484 332.266C368.848 332.266 373.196 327.326 373.196 321.232C373.196 315.138 368.848 310.198 363.484 310.198C358.12 310.198 353.771 315.138 353.771 321.232C353.771 327.326 358.12 332.266 363.484 332.266Z" fill="#E6E6E6"/>
<path d="M458.8 332.266C464.164 332.266 468.513 327.326 468.513 321.232C468.513 315.138 464.164 310.198 458.8 310.198C453.436 310.198 449.088 315.138 449.088 321.232C449.088 327.326 453.436 332.266 458.8 332.266Z" fill="#E6E6E6"/>
<path d="M530.288 300.336C535.652 300.336 540 295.396 540 289.302C540 283.208 535.652 278.268 530.288 278.268C524.924 278.268 520.575 283.208 520.575 289.302C520.575 295.396 524.924 300.336 530.288 300.336Z" fill="#3F3D56"/>
</g>
<defs>
<clipPath id="clip0_133_568">
<rect width="540" height="331.48" fill="white" transform="translate(0 0.785736)"/>
</clipPath>
</defs>
</svg>
